<svg width="40" height="40" viewBox="0 0 40 40" fill="none" xmlns="http://www.w3.org/2000/svg">
<path d="M12.8666 27.4266L15.8016 26.58L33.4733 8.69663C33.6126 8.55379 33.6903 8.36186 33.6893 8.16228C33.6884 7.9627 33.609 7.77149 33.4683 7.62997L32.4099 6.55997C32.3415 6.4897 32.2598 6.43375 32.1696 6.3954C32.0793 6.35704 31.9824 6.33705 31.8843 6.33658C31.7862 6.33612 31.6891 6.35519 31.5985 6.39269C31.5079 6.43018 31.4256 6.48535 31.3566 6.55497L13.7316 24.3916L12.8666 27.4266ZM34.5049 4.43997L35.5633 5.51163C37.0233 6.98997 37.0366 9.37497 35.5899 10.8383L17.3799 29.2683L11.1066 31.075C10.9169 31.1283 10.7186 31.1437 10.523 31.1204C10.3274 31.097 10.1383 31.0354 9.96652 30.939C9.79473 30.8426 9.64361 30.7133 9.5218 30.5584C9.39999 30.4036 9.30987 30.2263 9.25659 30.0366C9.17485 29.7616 9.17369 29.4689 9.25325 29.1933L11.0783 22.7933L29.2399 4.41163C29.5853 4.0639 29.9964 3.7884 30.4493 3.60122C30.9023 3.41404 31.3879 3.31892 31.878 3.3214C32.3681 3.32388 32.8528 3.42392 33.3038 3.61568C33.7548 3.80744 34.1631 4.08875 34.5049 4.43997ZM15.3066 6.36163C16.1333 6.36163 16.8033 7.03997 16.8033 7.87663C16.8046 8.07441 16.7669 8.27051 16.6924 8.45372C16.6178 8.63693 16.5079 8.80365 16.3689 8.94436C16.2299 9.08506 16.0646 9.19698 15.8823 9.27373C15.7 9.35048 15.5044 9.39054 15.3066 9.39163H9.31992C7.66659 9.39163 6.32659 10.7483 6.32659 12.42V30.5966C6.32659 32.27 7.66659 33.6266 9.31992 33.6266H27.2799C28.9333 33.6266 30.2749 32.27 30.2749 30.5966V24.5383C30.2749 23.7016 30.9449 23.0233 31.7716 23.0233C32.5983 23.0233 33.2683 23.7016 33.2683 24.54V30.5966C33.2683 33.9433 30.5866 36.6566 27.2799 36.6566H9.31992C6.01325 36.6566 3.33325 33.9433 3.33325 30.5966V12.42C3.33325 9.07497 6.01325 6.36163 9.31992 6.36163H15.3066Z" fill="#F4EADC"/>
</svg>
