<svg width="70" height="36" viewBox="0 0 70 36" fill="none" xmlns="http://www.w3.org/2000/svg">
<path d="M15.8105 6.37219L15.8105 21.3046L2.85777 21.3046L6.65913 13.8384L2.67029e-05 6.37219L15.8105 6.37219Z" fill="#983333"/>
<path d="M54.1895 6.37219L54.1895 21.3046L67.1422 21.3046L63.3409 13.8384L70 6.37219L54.1895 6.37219Z" fill="#983333"/>
<path d="M12.0562 9.1825L15.8106 6.37219V24.7953H12.0562V9.1825Z" fill="#552727"/>
<path d="M57.944 9.1825L54.1895 6.37219V24.7953H57.944V9.1825Z" fill="#552727"/>
<path d="M20.6592 9.16989L20.6592 26.2436L11.6193 26.2436C11.6193 26.2436 10.4885 26.2436 10.4885 17.7068C10.4885 9.16989 11.6193 9.16989 11.6193 9.16989L20.6592 9.16989Z" fill="#CE4444"/>
<path d="M50.2178 9.16989L50.2178 26.2436L58.6927 26.2436C58.6927 26.2436 59.7528 26.2436 59.7528 17.7068C59.7528 9.16989 58.6927 9.16989 58.6927 9.16989L50.2178 9.16989Z" fill="#CE4444"/>
<ellipse cx="35.0618" cy="17.7718" rx="17.2031" ry="17.7718" fill="url(#paint0_linear_170_512)"/>
<ellipse cx="34.9999" cy="17.8139" rx="13.7037" ry="14.1567" fill="url(#paint1_linear_170_512)"/>
<mask id="mask0_170_512" style="mask-type:alpha" maskUnits="userSpaceOnUse" x="23" y="6" width="25" height="26">
<ellipse cx="35.6131" cy="19.049" rx="11.767" ry="12.156" fill="#7D7D7D"/>
</mask>
<g mask="url(#mask0_170_512)">
<ellipse cx="34.9865" cy="17.7543" rx="11.767" ry="12.156" fill="#9CA1A3"/>
</g>
<path d="M35.0002 4.45474C42.1728 4.45489 47.9553 10.4108 47.9553 17.7174C47.9551 25.0238 42.1727 30.979 35.0002 30.9792C27.8277 30.9792 22.0444 25.0239 22.0442 17.7174C22.0442 10.4108 27.8275 4.45474 35.0002 4.45474Z" fill="#644314" stroke="#FBBF4C" stroke-width="1.50742"/>
<mask id="mask1_170_512" style="mask-type:alpha" maskUnits="userSpaceOnUse" x="23" y="6" width="25" height="26">
<ellipse cx="35.6655" cy="18.9727" rx="12.2065" ry="12.61" fill="#C28B37"/>
</mask>
<g mask="url(#mask1_170_512)">
<ellipse cx="35.0154" cy="17.6296" rx="12.2065" ry="12.61" fill="url(#paint2_linear_170_512)"/>
</g>
<path d="M35.226 8.46585L37.9793 14.1544L43.4858 14.8655L39.7047 19.2456L40.7325 25.5315L35.226 22.6872L29.7196 25.5315L30.7566 19.2456L26.9663 14.8655L32.4728 14.1544L35.226 8.46585Z" fill="url(#paint3_linear_170_512)"/>
<path d="M35.4976 8.33499L38.1792 13.876L43.5239 14.5664L44.0806 14.6387L43.7144 15.0625L40.0249 19.335L41.0298 25.4825L41.1265 26.0742L40.5942 25.7989L35.2261 23.0264L29.8579 25.7989L29.3247 26.0752L29.4224 25.4825L30.436 19.336L26.7388 15.0625L26.3706 14.6387L26.9272 14.5664L32.272 13.876L34.9546 8.33499L35.2261 7.77347L35.4976 8.33499Z" stroke="#353535" stroke-opacity="0.2" stroke-width="0.602968"/>
<defs>
<linearGradient id="paint0_linear_170_512" x1="35.0618" y1="0" x2="35.0618" y2="35.5436" gradientUnits="userSpaceOnUse">
<stop stop-color="#E0C04F"/>
<stop offset="1" stop-color="#B16F07"/>
</linearGradient>
<linearGradient id="paint1_linear_170_512" x1="34.9999" y1="3.65723" x2="34.9999" y2="31.9706" gradientUnits="userSpaceOnUse">
<stop stop-color="#898989"/>
<stop offset="1" stop-color="#5F5F5F"/>
</linearGradient>
<linearGradient id="paint2_linear_170_512" x1="35.0155" y1="5.01959" x2="35.0155" y2="30.2397" gradientUnits="userSpaceOnUse">
<stop stop-color="#A36D1D"/>
<stop offset="1" stop-color="#744A0C"/>
</linearGradient>
<linearGradient id="paint3_linear_170_512" x1="35.226" y1="13.9496" x2="35.226" y2="24.8052" gradientUnits="userSpaceOnUse">
<stop stop-color="white"/>
<stop offset="1" stop-color="#FFEE92"/>
</linearGradient>
</defs>
</svg>
