<svg width="70" height="38" viewBox="0 0 70 38" fill="none" xmlns="http://www.w3.org/2000/svg">
<path d="M15.8105 7.14464L15.8105 21.5992L2.85777 21.5992L6.65914 14.3719L2.86102e-05 7.14464L15.8105 7.14464Z" fill="#81599C"/>
<path d="M54.1895 7.14464L54.1895 21.5992L67.1422 21.5992L63.3409 14.3719L70 7.14464L54.1895 7.14464Z" fill="#81599C"/>
<path d="M12.0562 9.86501L15.8106 7.14464V24.9782H12.0562V9.86501Z" fill="#493A52"/>
<path d="M57.944 9.86501L54.1895 7.14464V24.9782H57.944V9.86501Z" fill="#493A52"/>
<path d="M22.9771 9.85281L22.9771 26.3802L11.3238 26.3802C11.3238 26.3802 10.2637 26.3802 10.2637 18.1165C10.2637 9.85281 11.3238 9.85281 11.3238 9.85281L22.9771 9.85281Z" fill="#AA75CB"/>
<path d="M47.1323 9.85281L47.1323 26.3802L58.5031 26.3802C58.5031 26.3802 59.5278 26.3802 59.5278 18.1165C59.5278 9.85281 58.5031 9.85281 58.5031 9.85281L47.1323 9.85281Z" fill="#AA75CB"/>
<path d="M34.2423 2.06239C35.6236 0.876174 37.664 0.876174 39.0452 2.06239C39.9338 2.82551 41.1321 3.12087 42.2735 2.85811C44.0478 2.44965 45.8545 3.39788 46.5263 5.09011C46.9584 6.17874 47.8822 6.99719 49.015 7.29496C50.7759 7.75783 51.935 9.43706 51.7434 11.2476C51.6201 12.4124 52.0578 13.5664 52.9224 14.3565C54.2665 15.5847 54.5124 17.6102 53.5013 19.1244C52.8509 20.0984 52.7021 21.3237 53.1005 22.4251C53.7199 24.1372 52.9964 26.045 51.3974 26.9158C50.3688 27.476 49.6677 28.4918 49.5086 29.6522C49.2614 31.456 47.7341 32.8091 45.9136 32.8371C44.7425 32.8551 43.6497 33.4287 42.9695 34.3823C41.9123 35.8646 39.9312 36.3529 38.3062 35.5317C37.2609 35.0034 36.0267 35.0034 34.9813 35.5317C33.3563 36.3529 31.3752 35.8646 30.318 34.3823C29.6379 33.4287 28.545 32.8551 27.3739 32.8371C25.5534 32.8091 24.0262 31.456 23.7789 29.6522C23.6198 28.4918 22.9187 27.476 21.8901 26.9158C20.2912 26.045 19.5677 24.1372 20.187 22.4251C20.5854 21.3237 20.4367 20.0984 19.7862 19.1244C18.7751 17.6102 19.0211 15.5847 20.3651 14.3565C21.2298 13.5664 21.6675 12.4124 21.5442 11.2476C21.3526 9.43706 22.5117 7.75783 24.2725 7.29496C25.4053 6.99719 26.3291 6.17874 26.7613 5.09011C27.433 3.39788 29.2397 2.44965 31.014 2.85811C32.1554 3.12087 33.3538 2.82551 34.2423 2.06239Z" fill="url(#paint0_linear_170_553)"/>
<circle cx="36.4849" cy="18.5933" r="13.1901" fill="#705100"/>
<mask id="mask0_170_553" style="mask-type:alpha" maskUnits="userSpaceOnUse" x="24" y="6" width="27" height="28">
<circle cx="37.3121" cy="20.0471" r="13.2483" fill="#C28B37"/>
</mask>
<g mask="url(#mask0_170_553)">
<circle cx="36.6067" cy="18.636" r="13.2483" fill="url(#paint1_linear_170_553)"/>
</g>
<ellipse cx="36.8027" cy="18.7522" rx="10.3296" ry="10.4885" fill="#A36D1D"/>
<ellipse opacity="0.8" cx="36.8028" cy="18.7522" rx="9.69392" ry="9.535" fill="url(#paint2_linear_170_553)"/>
<path d="M37.6875 11.6128L39.6143 15.2779L43.4365 15.7329L45.4014 15.9663L44.0479 17.4097L41.4072 20.2251L42.1309 24.2984L42.4707 26.2105L40.7168 25.3765L36.8027 23.5142L32.8887 25.3765L31.1318 26.2115L31.4746 24.2964L32.2041 20.2261L29.5586 17.4107L28.2012 15.9673L30.1689 15.7329L33.9902 15.2779L35.918 11.6128L36.8027 9.92825L37.6875 11.6128Z" fill="url(#paint3_linear_170_553)" stroke="#C18832" stroke-width="2"/>
<defs>
<linearGradient id="paint0_linear_170_553" x1="36.6438" y1="0" x2="36.6438" y2="37.5043" gradientUnits="userSpaceOnUse">
<stop stop-color="#FFE178"/>
<stop offset="1" stop-color="#DD9F00"/>
</linearGradient>
<linearGradient id="paint1_linear_170_553" x1="32.671" y1="5.40316" x2="42.206" y2="30.6709" gradientUnits="userSpaceOnUse">
<stop stop-color="#E4A400"/>
<stop offset="1" stop-color="#966301"/>
</linearGradient>
<linearGradient id="paint2_linear_170_553" x1="36.8028" y1="9.21716" x2="36.8028" y2="28.2872" gradientUnits="userSpaceOnUse">
<stop stop-color="#FFEC86"/>
<stop offset="1" stop-color="#FFB802"/>
</linearGradient>
<linearGradient id="paint3_linear_170_553" x1="36.8027" y1="16.0607" x2="36.8027" y2="23.9456" gradientUnits="userSpaceOnUse">
<stop stop-color="#FEFFC5"/>
<stop offset="0.161458" stop-color="#FFFAC5"/>
<stop offset="1" stop-color="#FFD585"/>
</linearGradient>
</defs>
</svg>
