<svg width="40" height="40" viewBox="0 0 40 40" fill="none" xmlns="http://www.w3.org/2000/svg">
<path d="M12.8666 27.4266L15.8016 26.5799L33.4733 8.69657C33.6126 8.55373 33.6903 8.3618 33.6893 8.16222C33.6884 7.96264 33.609 7.77143 33.4683 7.62991L32.4099 6.55991C32.3415 6.48963 32.2598 6.43369 32.1696 6.39534C32.0793 6.35698 31.9824 6.33699 31.8843 6.33652C31.7862 6.33606 31.6891 6.35513 31.5985 6.39262C31.5079 6.43012 31.4256 6.48529 31.3566 6.55491L13.7316 24.3916L12.8666 27.4266ZM34.5049 4.43991L35.5633 5.51157C37.0233 6.98991 37.0366 9.37491 35.5899 10.8382L17.3799 29.2682L11.1066 31.0749C10.9169 31.1282 10.7186 31.1436 10.523 31.1203C10.3274 31.097 10.1383 31.0353 9.96652 30.9389C9.79473 30.8425 9.64361 30.7132 9.5218 30.5584C9.39999 30.4035 9.30987 30.2262 9.25659 30.0366C9.17485 29.7616 9.17369 29.4689 9.25325 29.1932L11.0783 22.7932L29.2399 4.41157C29.5853 4.06384 29.9964 3.78834 30.4493 3.60116C30.9023 3.41398 31.3879 3.31885 31.878 3.32134C32.3681 3.32382 32.8528 3.42386 33.3038 3.61562C33.7548 3.80738 34.1631 4.08869 34.5049 4.43991ZM15.3066 6.36157C16.1333 6.36157 16.8033 7.03991 16.8033 7.87657C16.8046 8.07435 16.7669 8.27045 16.6924 8.45366C16.6178 8.63687 16.5079 8.80359 16.3689 8.94429C16.2299 9.085 16.0646 9.19692 15.8823 9.27367C15.7 9.35042 15.5044 9.39048 15.3066 9.39157H9.31992C7.66659 9.39157 6.32659 10.7482 6.32659 12.4199V30.5966C6.32659 32.2699 7.66659 33.6266 9.31992 33.6266H27.2799C28.9333 33.6266 30.2749 32.2699 30.2749 30.5966V24.5382C30.2749 23.7016 30.9449 23.0232 31.7716 23.0232C32.5983 23.0232 33.2683 23.7016 33.2683 24.5399V30.5966C33.2683 33.9432 30.5866 36.6566 27.2799 36.6566H9.31992C6.01325 36.6566 3.33325 33.9432 3.33325 30.5966V12.4199C3.33325 9.07491 6.01325 6.36157 9.31992 6.36157H15.3066Z" fill="#16FF00"/>
</svg>
