<svg width="30" height="30" viewBox="0 0 30 30" fill="none" xmlns="http://www.w3.org/2000/svg">
<path d="M8.4375 27.5C7.5 27.5 6.69292 27.1821 6.01625 26.5462C5.33958 25.9104 5.00083 25.1242 5 24.1875V6.75C5 5.95833 5.245 5.25 5.735 4.625C6.225 4 6.86542 3.60417 7.65625 3.4375L17.0312 1.59375C17.8021 1.42708 18.4896 1.59375 19.0937 2.09375C19.6979 2.59375 20 3.23958 20 4.03125V18.9375C20 19.5417 19.8125 20.0783 19.4375 20.5475C19.0625 21.0167 18.5833 21.3029 18 21.4062L8.15625 23.375C7.96875 23.4167 7.8125 23.5158 7.6875 23.6725C7.5625 23.8292 7.5 24.0008 7.5 24.1875C7.5 24.4167 7.59375 24.6096 7.78125 24.7662C7.96875 24.9229 8.1875 25.0008 8.4375 25H22.5V6.25C22.5 5.89583 22.62 5.59917 22.86 5.36C23.1 5.12083 23.3967 5.00083 23.75 5C24.1033 4.99917 24.4004 5.11917 24.6412 5.36C24.8821 5.60083 25.0017 5.8975 25 6.25V25C25 25.6875 24.7554 26.2762 24.2663 26.7662C23.7771 27.2562 23.1883 27.5008 22.5 27.5H8.4375ZM10.25 20.4375C10.5417 20.375 10.7812 20.2292 10.9687 20C11.1562 19.7708 11.25 19.5104 11.25 19.2187V6.8125C11.25 6.41667 11.0988 6.09375 10.7963 5.84375C10.4938 5.59375 10.145 5.51042 9.75 5.59375C9.45833 5.65625 9.21875 5.80208 9.03125 6.03125C8.84375 6.26042 8.75 6.52083 8.75 6.8125V19.2187C8.75 19.6146 8.90083 19.9375 9.2025 20.1875C9.50417 20.4375 9.85333 20.5208 10.25 20.4375Z" fill="#F0F9F0"/>
</svg>
