<svg width="30" height="30" viewBox="0 0 30 30" fill="none" xmlns="http://www.w3.org/2000/svg">
<path d="M8.75 22.5C8.39583 22.5 8.09917 22.38 7.86 22.14C7.62083 21.9 7.50083 21.6033 7.5 21.25V18.75H23.75V7.5H26.25C26.6042 7.5 26.9012 7.62 27.1412 7.86C27.3812 8.1 27.5008 8.39667 27.5 8.75V27.5L22.5 22.5H8.75ZM2.5 21.25V3.75C2.5 3.39583 2.62 3.09917 2.86 2.86C3.1 2.62083 3.39667 2.50083 3.75 2.5H20C20.3542 2.5 20.6512 2.62 20.8912 2.86C21.1312 3.1 21.2508 3.39667 21.25 3.75V15C21.25 15.3542 21.13 15.6512 20.89 15.8912C20.65 16.1312 20.3533 16.2508 20 16.25H7.5L2.5 21.25Z" fill="#F4EADC"/>
</svg>
